{"title":"The.Intern.2015.HDCAM-HQMIC.AC3.HQ.Hive-CM8","uid":12503629,"size":1590046815,"categoryP":"video","categoryS":"movies","magnet":"?xt=urn:btih:125e15065d6342550e33267c41f4983e7029854c&amp;dn=The.Intern.2015.HDCAM-HQMIC.AC3.HQ.Hive-CM8&amp;tr=udp%3A%2F%2Ftracker.leechers-paradise.org%3A6969&amp;tr=udp%3A%2F%2Fzer0day.ch%3A1337&amp;tr=udp%3A%2F%2Fopen.demonii.com%3A1337&amp;tr=udp%3A%2F%2Ftracker.coppersurfer.tk%3A6969&amp;tr=udp%3A%2F%2Fexodus.desync.com%3A6969","seeders":26,"leechers":3,"uploader":"xxxlavalxxx","files":4,"time":1443416797,"description":"http://extraimago.com/image/db0\r\n \nhttp://www.imdb.com/title/tt2361509/\r\n\r\n\r\n70-year-old widower Ben Whittaker has discovered that retirement isn't all it's cracked up to be. Seizing an opportunity to get back in the game, he becomes a senior intern at an online fashion site, founded and run by Jules Ostin.\r\n\r\nDirector: Nancy Meyers\r\nWriter: Nancy Meyers\r\nStars: Robert De Niro, Anne Hathaway, Rene Russo\r\nGenres: Comedy\r\nCountry: USA\r\nLanguage: English\r\n\r\n\r\nThe.Intern.2015.HDCAM-HQMIC.AC3.HQ.Hive-CM8\r\n\r\nThx Hive\r\n\r\nCM8 Doing It Right The First Time \r\n\r\nSources:\r\n\r\nVideo: Ukrainian HDCAM 1 and 2\r\nAudio: HQMic Audio from a friend xoxo\r\nthx guys for helping out\r\n\r\nNotes:\r\n\r\ngot 2 great early hdcams,both steady without shaking, great quality for that funny movie, dont miss it\r\none was better the first hour the other the second hour, so best way was to combine them to get a complete movie.\r\na russian version is already out, but misses 22mins, so this one is the only complete one now.\r\nfor security reasons the warner logo upfront and the endcredits were already chopped off, hence runtime shorter, but nothing from the movie is missing\r\n\r\nEncode:\r\n\r\nboth cams were already bright enough, fixed brightness-contrast relation, added sharpness and denoise\r\nThe 2nd cam had a different ar and resolution so i had to find a common ground to combine them without hurting the other video.\r\nso the last 40mins are still widescreen now just not that wide, i could have zoomed in to fit perfectly but than i had to crop 60 more lines to do so, rather left it as it is.\r\nthis will do just fine, added pics from first and 2nd cam for preview\r\n\r\nfor the Audio i waited for the better hqmic so that you can hear everything loud and clear.\r\ncleaned tuned and lipsynced to my video.\r\n\r\nNow if you dont like it, dont intend on downloading it , think you can do better , go and do it and keep ya smartass comments to yourself\r\nDont like the tag? tuff titties \r\nI am sure some expert will make a watchable print out of it lol :wink:\r\nI know its not paper towns like you all hoped but this will have to do :wink:\r\n\r\ngot very nice\r\nwill do me till retail ( is a personal opinion ) dont agree? wait for better , again no smartass comments needed\r\nenjoy\r\n\r\n\r\nVideo: 720x336 @bitrate 1600 2pass\r\nAudio: English AC3 2.0 HQMic\r\nSample: yes included\r\n\r\n\r\n \nhttp://www.imdb.com/title/tt2361509/\r\n\r\n\r\nGeneral\r\nComplete name                  : The.Intern.2015.HDCAM-HQMIC.AC3.HQ.Hive-CM8.avi\r\nFormat                         : AVI\r\nFormat/Info                    : Audio Video Interleave\r\nFile size                      : 1.47 GiB\r\nDuration                       : 1h 52mn\r\nOverall bit rate               : 1 866 Kbps\r\nWriting application            : Nandub v1.0rc2\r\nWriting library                : Nandub build 1853/release\r\n\r\nVideo\r\nID                             : 0\r\nFormat                         : MPEG-4 Visual\r\nFormat profile                 : Advanced   \r\nFormat settings, BVOP          : 2\r\nFormat settings, QPel          : Yes\r\nFormat settings, GMC           : No warppoints\r\nFormat settings, Matrix        : Default (H.263)\r\nMuxing mode                    : Packed bitstream\r\nCodec ID                       : XVID\r\nCodec ID/Hint                  : XviD\r\nDuration                       : 1h 52mn\r\nBit rate                       : 1 600 Kbps\r\nWidth                          : 720 pixels\r\nHeight                         : 336 pixels\r\nDisplay aspect ratio           : 2.143\r\nFrame rate                     : 25.000 fps\r\nColor space                    : YUV\r\nChroma subsampling             : 4:2:0\r\nBit depth                      : 8 bits\r\nScan type                      : Progressive\r\nCompression mode               : Lossy\r\nBits/(Pixel*Frame)             : 0.265\r\nStream size                    : 1.26 GiB (86%)\r\nWriting library                : XviD 1.2.1 (UTC 2008-12-04)\r\n\r\nAudio\r\nID                             : 1\r\nFormat                         : AC-3\r\nFormat/Info                    : Audio Coding 3\r\nMode extension                 : CM (complete main)\r\nFormat settings, Endianness    : Big\r\nCodec ID                       : 2000\r\nDuration                       : 1h 52mn\r\nBit rate mode                  : Constant\r\nBit rate                       : 256 Kbps\r\nChannel(s)                     : 2 channels\r\nChannel positions              : Front: L R\r\nSampling rate                  : 48.0 KHz\r\nBit depth                      : 16 bits\r\nCompression mode               : Lossy\r\nStream size                    : 206 MiB (14%)\r\nAlignment                      : Split accross interleaves\r\nInterleave, duration           : 40 ms (1.00 video frame)\r\nInterleave, preload duration   : 500 ms\r\n\r\nGreetz\r\n\r\nSugarB,iNCOMiNG,Izzy,MenaceIISociety,jiinx,SiMPLE,CherryBomb\r\nranbailey,ViSiON,UnKnOwN,YanKeeS,COPYxRIGHT,THC,VAiN,ACAB,DRs\r\nLKRG,Kingstoner,ACAB,SiMPLE,TiTAN,cadance\r\nUnevano,BigVik,Rapeseed,SAFC,goldadvance,KaN1vE,Pinnz,Wayne,HiGH\r\nSeeN,jtr,Limey,ICONiK,TED,smittyman,rkofan,mrtoke09 (ya whinging old man here ya go lol )\r\nMr Hive\r\n\r\na special thanks to the office , toddy and megs for letting ted be shit faced and not kick him out haha\r\n\r\n\r\nLOOKING FOR ANYTHING YOU WANT TO LOOK AND SOUND BETTER\r\n\r\nCOME FIND US WE DONT BITE \r\n  \r\n\r\n \nhttp://extraimago.com/image/dbZ \nhttp://extraimago.com/image/dbe \nhttp://extraimago.com/image/db4 \nhttp://extraimago.com/image/dbB \nhttp://extraimago.com/image/dbC \nhttp://extraimago.com/image/dbY \nhttp://extraimago.com/image/dbp \nhttp://extraimago.com/image/dbP \nhttp://extraimago.com/image/dbX","torrent":{"xt":"urn:btih:125e15065d6342550e33267c41f4983e7029854c","amp;dn":"The.Intern.2015.HDCAM-HQMIC.AC3.HQ.Hive-CM8","amp;tr":["udp%3A%2F%2Ftracker.leechers-paradise.org%3A6969","udp%3A%2F%2Fzer0day.ch%3A1337","udp%3A%2F%2Fopen.demonii.com%3A1337","udp%3A%2F%2Ftracker.coppersurfer.tk%3A6969","udp%3A%2F%2Fexodus.desync.com%3A6969"],"infoHash":"125e15065d6342550e33267c41f4983e7029854c","infoHashBuffer":{"type":"Buffer","data":[18,94,21,6,93,99,66,85,14,51,38,124,65,244,152,62,112,41,133,76]},"announce":[],"urlList":[]}}